<svg id="visual" viewBox="0 0 900 600" width="900" height="600" xmlns="http://www.w3.org/2000/svg" xmlns:xlink="http://www.w3.org/1999/xlink" version="1.1"><rect x="0" y="0" width="900" height="600" fill="#ffffff"></rect><path d="M0 428L18.8 431.8C37.7 435.7 75.3 443.3 112.8 438.2C150.3 433 187.7 415 225.2 387.5C262.7 360 300.3 323 337.8 339C375.3 355 412.7 424 450.2 453.5C487.7 483 525.3 473 562.8 463C600.3 453 637.7 443 675.2 417C712.7 391 750.3 349 787.8 331.5C825.3 314 862.7 321 881.3 324.5L900 328L900 601L881.3 601C862.7 601 825.3 601 787.8 601C750.3 601 712.7 601 675.2 601C637.7 601 600.3 601 562.8 601C525.3 601 487.7 601 450.2 601C412.7 601 375.3 601 337.8 601C300.3 601 262.7 601 225.2 601C187.7 601 150.3 601 112.8 601C75.3 601 37.7 601 18.8 601L0 601Z" fill="#000000" stroke-linecap="round" stroke-linejoin="miter"></path></svg>